<?xml version="1.0" encoding="UTF-8"?>
<svg id="Layer_1" data-name="Layer 1" xmlns="http://www.w3.org/2000/svg" viewBox="0 0 100 100">
  <defs>
    <style>
      .cls-1 {
        fill: #cd2027;
        stroke-width: 0px;
      }
    </style>
  </defs>
  <path class="cls-1" d="M50,55.39c.97,0,1.76-.79,1.76-1.76v-7.03c0-.97-.79-1.76-1.76-1.76s-1.76.79-1.76,1.76v7.03c0,.97.79,1.76,1.76,1.76Z"/>
  <path class="cls-1" d="M35.62,23.11l-5.36,5.36c-.77.77-.22,2.08.86,2.08h5.36c.67,0,1.22-.55,1.22-1.22v-5.36c0-1.09-1.31-1.63-2.08-.86Z"/>
  <path class="cls-1" d="M41.21,23.95v6.16c0,2.18-1.77,3.95-3.95,3.95h-6.16c-2.18,0-3.95,1.77-3.95,3.95v38.04c0,2.18,1.77,3.95,3.95,3.95h37.8c2.18,0,3.95-1.77,3.95-3.95V23.95c0-2.18-1.77-3.95-3.95-3.95h-23.74c-2.18,0-3.95,1.77-3.95,3.95ZM44.73,46.6c0-2.91,2.37-5.27,5.27-5.27s5.27,2.37,5.27,5.27v7.03c0,2.91-2.37,5.27-5.27,5.27s-5.27-2.37-5.27-5.27v-7.03ZM62.3,53.63c0,6.18-4.6,11.26-10.55,12.13,0,0,0,0,0,0v3.65s.02.04.04.04h3.43s.04.02.04.04v3.43s-.02.04-.04.04h-10.46s-.04-.02-.04-.04v-3.43s.02-.04.04-.04h3.43s.04-.02.04-.04v-3.65s0,0,0,0c-5.95-.86-10.55-5.94-10.55-12.13v-5.23s.02-.04.04-.04h3.43s.04.02.04.04v4.88c0,4.7,3.54,8.82,8.22,9.12,5.1.32,9.35-3.74,9.35-8.77v-5.23s.02-.04.04-.04h3.43s.04.02.04.04v5.23ZM64.06,37.58h-14.06c-.97,0-1.76-.79-1.76-1.76h0c0-.97.79-1.76,1.76-1.76h14.06c.97,0,1.76.79,1.76,1.76h0c0,.97-.79,1.76-1.76,1.76ZM64.06,30.55h-7.03c-.97,0-1.76-.79-1.76-1.76h0c0-.97.79-1.76,1.76-1.76h7.03c.97,0,1.76.79,1.76,1.76h0c0,.97-.79,1.76-1.76,1.76Z"/>
</svg>