<?xml version="1.0" encoding="UTF-8"?>
<svg id="Layer_1" data-name="Layer 1" xmlns="http://www.w3.org/2000/svg" viewBox="0 0 100 100">
  <defs>
    <style>
      .cls-1 {
        fill: #cd2027;
        stroke-width: 0px;
      }
    </style>
  </defs>
  <ellipse class="cls-1" cx="36.7" cy="59.75" rx="1.45" ry="1.34"/>
  <path class="cls-1" d="M36.7,48.93c-.8,0-1.45.6-1.45,1.34s.65,1.34,1.45,1.34,1.45-.6,1.45-1.34-.65-1.34-1.45-1.34Z"/>
  <ellipse class="cls-1" cx="36.7" cy="40.79" rx="1.45" ry="1.34"/>
  <path class="cls-1" d="M68.18,20c-7.43,0-13.45,6.02-13.45,13.45,0,7.43,6.02,13.45,13.45,13.45s13.45-6.02,13.45-13.45c0-7.42-6.02-13.44-13.45-13.45ZM68.12,32.48h0c2.31,0,4.24,1.76,4.46,4.06.22,2.3-1.34,4.39-3.61,4.83v1.26c0,.53-.43.95-.95.95s-.95-.43-.95-.95v-1.3c-2.01-.49-3.42-2.29-3.43-4.36,0-.53.43-.95.95-.95s.95.43.95.95c0,1.42,1.15,2.57,2.57,2.57s2.57-1.15,2.57-2.57-1.15-2.57-2.57-2.57c-2.27,0-4.18-1.7-4.45-3.95-.27-2.25,1.19-4.35,3.39-4.89v-1.2c0-.53.43-.95.95-.95s.95.43.95.95v1.16c2.11.41,3.63,2.26,3.63,4.4,0,.53-.43.95-.95.95s-.95-.43-.95-.95c0-1.4-1.13-2.55-2.53-2.57-.05,0-.1.01-.14.01-.03,0-.06,0-.09,0-1.38.1-2.43,1.28-2.38,2.66.05,1.38,1.19,2.48,2.57,2.48Z"/>
  <path class="cls-1" d="M52.77,79.43c-1.59-1.58-2.48-3.73-2.49-5.97v-3.82h-31.92v3.84c.02,3.6,2.94,6.52,6.55,6.53h28.5c-.23-.17-.45-.36-.65-.57Z"/>
  <path class="cls-1" d="M55.27,41.67h-11.56c-.53,0-.95-.43-.95-.95s.43-.95.95-.95h10.52c-.92-2-1.4-4.18-1.39-6.38,0-1.06.11-2.12.33-3.17h-25.7l-.25,37.51h24.08c.24,0,.48.08.65.25.17.17.26.41.26.65v4.83c.02,3.61,2.95,6.53,6.56,6.54h.02c3.6,0,6.51-2.93,6.51-6.53v-24.95c-4.15-.79-7.79-3.27-10.03-6.86ZM36.7,63c-1.85,0-3.36-1.46-3.36-3.25s1.51-3.25,3.36-3.25,3.36,1.46,3.36,3.25-1.51,3.25-3.36,3.25ZM36.7,53.52c-1.85,0-3.36-1.46-3.36-3.25s1.51-3.25,3.36-3.25,3.36,1.46,3.36,3.25-1.51,3.25-3.36,3.25ZM36.7,44.03c-1.85,0-3.36-1.46-3.36-3.25s1.51-3.25,3.36-3.25,3.36,1.46,3.36,3.25-1.51,3.25-3.36,3.25ZM58.25,60.77h-14.55c-.53,0-.95-.43-.95-.95s.43-.95.95-.95h14.55c.53,0,.95.43.95.95s-.43.95-.95.95ZM59.2,50.27c0,.53-.43.95-.95.95h-14.55c-.53,0-.95-.43-.95-.95s.43-.95.95-.95h14.55c.53,0,.95.43.95.95Z"/>
</svg>