<?xml version="1.0" encoding="UTF-8"?>
<svg id="Layer_1" data-name="Layer 1" xmlns="http://www.w3.org/2000/svg" viewBox="0 0 30 30">
  <defs>
    <style>
      .cls-1 {
        fill: #cd2027;
        stroke-width: 0px;
      }
    </style>
  </defs>
  <path class="cls-1" d="M17.73,12.4l-3.73,3.52-1.7-1.75c-.15-.15-.34-.24-.56-.24,0,0,0,0-.01,0-.21,0-.4.08-.55.22-.15.15-.24.34-.24.56,0,.21.08.41.22.56l2.25,2.31c.16.16.36.24.57.24s.39-.07.55-.22l4.3-4.05c.15-.14.24-.34.25-.55,0-.21-.07-.42-.22-.57-.3-.31-.81-.33-1.13-.03Z"/>
  <path class="cls-1" d="M15,6.65c-4.6,0-8.35,3.75-8.35,8.35s3.75,8.35,8.35,8.35,8.35-3.75,8.35-8.35-3.75-8.35-8.35-8.35ZM21.77,15c0,3.73-3.04,6.77-6.77,6.77s-6.76-3.04-6.76-6.77,3.03-6.76,6.76-6.76,6.77,3.03,6.77,6.76Z"/>
  <path class="cls-1" d="M28.12,14.57l-1.72-2.61.17-3.13c.02-.32-.15-.61-.44-.75l-2.79-1.41-1.41-2.79c-.14-.28-.45-.44-.75-.43l-3.14.17-2.61-1.73c-.27-.18-.61-.18-.87,0l-2.61,1.73-3.13-.17c-.31-.02-.61.15-.75.43l-1.41,2.79-2.79,1.41c-.28.14-.45.44-.43.75l.17,3.13-1.73,2.61c-.17.26-.17.61,0,.87l1.72,2.62-.18,3.13c-.02.32.15.61.44.75l2.79,1.41,1.41,2.79c.14.28.45.44.75.43l3.13-.18,2.61,1.73c.13.09.29.13.44.13s.31-.04.44-.13l2.61-1.73,3.13.18c.33,0,.61-.16.75-.44l1.41-2.79,2.79-1.41c.28-.14.45-.44.43-.75l-.17-3.13,1.73-2.62c.17-.26.17-.61,0-.87ZM24.96,20.76l-2.56,1.29c-.15.08-.27.2-.35.35l-1.29,2.56-2.88-.16c-.16,0-.33.04-.48.13l-2.4,1.58-2.4-1.58c-.13-.09-.28-.13-.48-.13h0l-2.88.16-1.29-2.56c-.08-.15-.2-.27-.35-.35l-2.56-1.29.16-2.88c0-.17-.04-.33-.13-.48l-1.58-2.4,1.58-2.4c.1-.14.14-.32.13-.49l-.16-2.88,2.56-1.29c.15-.08.27-.2.35-.35l1.29-2.56,2.88.16c.17,0,.33-.04.48-.13l2.4-1.58,2.4,1.58c.14.1.32.15.49.13l2.88-.16,1.29,2.56c.08.15.2.28.35.35l2.56,1.29-.16,2.88c0,.17.04.33.13.48l1.58,2.4-1.58,2.4c-.1.14-.14.32-.13.48l.16,2.88Z"/>
</svg>