<?xml version="1.0" encoding="UTF-8"?>
<svg id="Layer_1" data-name="Layer 1" xmlns="http://www.w3.org/2000/svg" viewBox="0 0 100 100">
  <defs>
    <style>
      .cls-1 {
        fill: #cd2027;
        stroke-width: 0px;
      }
    </style>
  </defs>
  <path class="cls-1" d="M42.5,20h-16.88c-3.1,0-5.62,2.52-5.62,5.63v16.87c0,3.1,2.52,5.63,5.62,5.63h16.88c3.1,0,5.62-2.52,5.62-5.63v-16.87c0-3.1-2.52-5.63-5.62-5.63Z"/>
  <path class="cls-1" d="M74.38,20h-16.88c-3.1,0-5.62,2.52-5.62,5.63v16.87c0,3.1,2.52,5.63,5.62,5.63h16.88c3.1,0,5.62-2.52,5.62-5.63v-16.87c0-3.1-2.52-5.63-5.62-5.63Z"/>
  <path class="cls-1" d="M74.38,51.88h-16.88c-3.1,0-5.62,2.52-5.62,5.62v16.87c0,3.1,2.52,5.63,5.62,5.63h16.88c3.1,0,5.62-2.52,5.62-5.63v-16.87c0-3.1-2.52-5.62-5.62-5.62Z"/>
  <path class="cls-1" d="M42.5,51.88h-16.88c-3.1,0-5.62,2.52-5.62,5.62v16.87c0,3.1,2.52,5.63,5.62,5.63h16.88c3.1,0,5.62-2.52,5.62-5.63v-16.87c0-3.1-2.52-5.62-5.62-5.62Z"/>
</svg>